<mxfile host="app.diagrams.net" modified="2021-04-27T07:57:29.333Z" agent="5.0 (X11; Linux x86_64) AppleWebKit/537.36 (KHTML, like Gecko) Chrome/88.0.4324.150 Safari/537.36" etag="6XeQ--yb2m9_w8gier8E" version="14.6.3" type="github">
  <diagram id="pZ2YMgxJ2bSJZwzXn7dY" name="Page-1">
    <mxGraphModel dx="757" dy="1267" grid="1" gridSize="10" guides="1" tooltips="1" connect="1" arrows="1" fold="1" page="1" pageScale="1" pageWidth="827" pageHeight="1169" math="0" shadow="0">
      <root>
        <mxCell id="0" />
        <mxCell id="1" parent="0" />
        <mxCell id="PFcoh3jPED8BSYxt2q4m-1" value="&lt;b&gt;&lt;font style=&quot;font-size: 13px&quot;&gt;Original data Unification&lt;/font&gt;&lt;/b&gt;" style="rounded=1;whiteSpace=wrap;html=1;fillColor=#fff2cc;strokeColor=#d6b656;" vertex="1" parent="1">
          <mxGeometry x="80" y="260" width="120" height="60" as="geometry" />
        </mxCell>
        <mxCell id="PFcoh3jPED8BSYxt2q4m-8" value="" style="edgeStyle=orthogonalEdgeStyle;rounded=0;orthogonalLoop=1;jettySize=auto;html=1;" edge="1" parent="1" source="PFcoh3jPED8BSYxt2q4m-2" target="PFcoh3jPED8BSYxt2q4m-7">
          <mxGeometry relative="1" as="geometry" />
        </mxCell>
        <mxCell id="PFcoh3jPED8BSYxt2q4m-2" value="&lt;b style=&quot;font-size: 13px&quot;&gt;Data processing&lt;br&gt;and storage&lt;/b&gt;" style="rounded=1;whiteSpace=wrap;html=1;fillColor=#fff2cc;strokeColor=#d6b656;" vertex="1" parent="1">
          <mxGeometry x="240" y="260" width="120" height="60" as="geometry" />
        </mxCell>
        <mxCell id="PFcoh3jPED8BSYxt2q4m-3" value="" style="endArrow=classic;html=1;exitX=1;exitY=0.5;exitDx=0;exitDy=0;entryX=0;entryY=0.5;entryDx=0;entryDy=0;" edge="1" parent="1" source="PFcoh3jPED8BSYxt2q4m-1" target="PFcoh3jPED8BSYxt2q4m-2">
          <mxGeometry width="50" height="50" relative="1" as="geometry">
            <mxPoint x="210" y="410" as="sourcePoint" />
            <mxPoint x="260" y="360" as="targetPoint" />
          </mxGeometry>
        </mxCell>
        <mxCell id="PFcoh3jPED8BSYxt2q4m-10" value="" style="edgeStyle=orthogonalEdgeStyle;rounded=0;orthogonalLoop=1;jettySize=auto;html=1;" edge="1" parent="1" source="PFcoh3jPED8BSYxt2q4m-7" target="PFcoh3jPED8BSYxt2q4m-9">
          <mxGeometry relative="1" as="geometry" />
        </mxCell>
        <mxCell id="PFcoh3jPED8BSYxt2q4m-7" value="&lt;span style=&quot;color: rgb(51 , 51 , 51) ; font-family: &amp;#34;helvetica neue&amp;#34; , &amp;#34;helvetica&amp;#34; , &amp;#34;arial&amp;#34; , &amp;#34;hiragino sans gb&amp;#34; , &amp;#34;hiragino sans gb w3&amp;#34; , &amp;#34;microsoft yahei ui&amp;#34; , &amp;#34;microsoft yahei&amp;#34; , sans-serif&quot;&gt;&lt;b&gt;&lt;font style=&quot;font-size: 14px&quot;&gt;Data index&lt;/font&gt;&lt;/b&gt;&lt;/span&gt;" style="whiteSpace=wrap;html=1;rounded=1;fillColor=#fff2cc;strokeColor=#d6b656;" vertex="1" parent="1">
          <mxGeometry x="400" y="260" width="120" height="60" as="geometry" />
        </mxCell>
        <mxCell id="PFcoh3jPED8BSYxt2q4m-9" value="&lt;b&gt;&lt;font style=&quot;font-size: 13px&quot;&gt;Instruction Generation and Publication&lt;/font&gt;&lt;/b&gt;" style="whiteSpace=wrap;html=1;rounded=1;fillColor=#fff2cc;strokeColor=#d6b656;" vertex="1" parent="1">
          <mxGeometry x="560" y="260" width="120" height="60" as="geometry" />
        </mxCell>
      </root>
    </mxGraphModel>
  </diagram>
</mxfile>
